<svg xmlns="http://www.w3.org/2000/svg" height="512.00002pt" version="1.1" viewBox="0 0 512.00002 512.00002" width="512.00002pt">
<g id="surface1">
<path d="M 71.480469 122.515625 C 47.738281 123.84375 28.898438 143.511719 28.898438 167.582031 L 28.898438 422.546875 L 475 422.546875 L 475 167.582031 C 475 142.648438 454.792969 122.441406 429.859375 122.441406 L 425.949219 122.441406 " style=" stroke:none;fill-rule:nonzero;fill:rgb(14.117647%,19.215686%,25.882353%);fill-opacity:1;" />
<path d="M 504.398438 422.546875 L 504.398438 452.304688 C 504.398438 461.601562 501.96875 470.320312 497.699219 477.871094 C 488.757812 493.707031 471.773438 504.394531 452.308594 504.394531 L 59.699219 504.394531 C 30.925781 504.394531 7.609375 481.078125 7.609375 452.304688 L 7.609375 422.546875 Z M 504.398438 422.546875 " style=" stroke:none;fill-rule:nonzero;fill:rgb(80%,80%,80%);fill-opacity:1;" />
<path d="M 504.398438 422.546875 L 504.398438 452.304688 C 504.398438 461.601562 501.96875 470.320312 497.699219 477.871094 C 492.953125 479.300781 487.925781 480.0625 482.722656 480.0625 L 90.117188 480.0625 C 61.34375 480.0625 38.023438 456.742188 38.023438 427.96875 L 38.023438 422.546875 Z M 504.398438 422.546875 " style=" stroke:none;fill-rule:nonzero;fill:rgb(90.196078%,90.196078%,90.196078%);fill-opacity:1;" />
<path d="M 199.832031 7.605469 L 103.320312 7.605469 C 85.734375 7.605469 71.480469 21.859375 71.480469 39.445312 L 71.480469 422.546875 L 231.671875 422.546875 L 231.671875 39.441406 C 231.671875 21.859375 217.417969 7.605469 199.832031 7.605469 Z M 199.832031 7.605469 " style=" stroke:none;fill-rule:nonzero;fill:rgb(100%,81.568627%,38.039216%);fill-opacity:1;" />
<path d="M 71.480469 390.101562 L 231.671875 390.101562 L 231.671875 422.546875 L 71.480469 422.546875 Z M 71.480469 390.101562 " style=" stroke:none;fill-rule:nonzero;fill:rgb(93.72549%,53.72549%,18.823529%);fill-opacity:1;" />
<path d="M 428.363281 422.546875 L 428.363281 132.585938 L 401.054688 85.496094 L 355.886719 7.605469 L 310.726562 85.496094 L 283.421875 132.585938 L 283.421875 422.546875 Z M 428.363281 422.546875 " style=" stroke:none;fill-rule:nonzero;fill:rgb(100%,81.568627%,38.039216%);fill-opacity:1;" />
<path d="M 355.886719 7.605469 L 310.726562 85.496094 L 283.421875 132.585938 L 283.421875 422.546875 L 319.8125 422.546875 L 319.8125 124.496094 Z M 355.886719 7.605469 " style=" stroke:none;fill-rule:nonzero;fill:rgb(93.72549%,53.72549%,18.823529%);fill-opacity:1;" />
<path d="M 428.363281 422.546875 L 428.363281 145.523438 C 413.136719 145.1875 400.199219 132.820312 395.011719 122.546875 C 394.03125 120.601562 391.164062 120.59375 390.175781 122.542969 C 384.925781 132.953125 371.699219 145.53125 356.203125 145.53125 C 340.714844 145.53125 327.480469 132.953125 322.230469 122.542969 C 321.910156 121.910156 321.402344 121.484375 320.8125 121.257812 C 319.589844 120.796875 318.058594 121.222656 317.394531 122.542969 C 312.144531 132.953125 298.910156 145.53125 283.421875 145.53125 L 283.421875 422.546875 Z M 428.363281 422.546875 " style=" stroke:none;fill-rule:nonzero;fill:rgb(28.627451%,74.117647%,56.470588%);fill-opacity:1;" />
<path d="M 320.8125 121.257812 C 319.589844 120.796875 318.058594 121.222656 317.394531 122.542969 C 312.140625 132.953125 298.910156 145.53125 283.421875 145.53125 L 283.421875 422.546875 L 319.8125 422.546875 L 319.8125 124.496094 Z M 320.8125 121.257812 " style=" stroke:none;fill-rule:nonzero;fill:rgb(12.941176%,56.078431%,40.784314%);fill-opacity:1;" />
<path d="M 428.363281 422.546875 L 428.363281 145.523438 C 413.136719 145.1875 400.199219 132.820312 395.011719 122.546875 C 394.519531 121.574219 393.558594 121.082031 392.59375 121.082031 L 392.59375 422.546875 Z M 428.363281 422.546875 " style=" stroke:none;fill-rule:nonzero;fill:rgb(58.431373%,90.980392%,78.431373%);fill-opacity:1;" />
<path d="M 386.546875 60.472656 L 355.886719 7.605469 L 325.234375 60.472656 C 329.210938 62.695312 333.460938 64.496094 337.917969 65.824219 C 343.613281 67.507812 349.640625 68.410156 355.886719 68.410156 C 367.039062 68.410156 377.507812 65.527344 386.546875 60.472656 Z M 386.546875 60.472656 " style=" stroke:none;fill-rule:nonzero;fill:rgb(24.313725%,29.411765%,36.078431%);fill-opacity:1;" />
<path d="M 355.886719 7.605469 L 325.234375 60.472656 C 329.210938 62.695312 333.460938 64.496094 337.917969 65.824219 Z M 355.886719 7.605469 " style=" stroke:none;fill-rule:nonzero;fill:rgb(14.117647%,19.215686%,25.882353%);fill-opacity:1;" />
<path d="M 273.636719 463.472656 L 212.011719 463.472656 C 197.859375 463.472656 186.386719 451.996094 186.386719 437.84375 L 186.386719 422.546875 L 299.261719 422.546875 L 299.261719 437.84375 C 299.261719 451.996094 287.789062 463.472656 273.636719 463.472656 Z M 273.636719 463.472656 " style=" stroke:none;fill-rule:nonzero;fill:rgb(100%,100%,100%);fill-opacity:1;" />
<path d="M 504.394531 414.941406 L 482.601562 414.941406 L 482.601562 167.582031 C 482.601562 138.5 458.941406 114.839844 429.859375 114.839844 L 426.859375 114.839844 L 393.195312 56.785156 C 393.191406 56.777344 393.191406 56.773438 393.1875 56.769531 C 393.183594 56.761719 393.175781 56.75 393.171875 56.742188 L 362.464844 3.789062 C 361.105469 1.445312 358.597656 0 355.886719 0 C 353.175781 0 350.667969 1.445312 349.308594 3.789062 L 284.921875 114.839844 L 239.277344 114.839844 L 239.277344 39.441406 C 239.273438 17.695312 221.582031 0 199.832031 0 L 103.320312 0 C 81.570312 0 63.878906 17.695312 63.878906 39.441406 L 63.878906 115.828125 C 39.496094 120.582031 21.296875 142.0625 21.296875 167.582031 L 21.296875 414.941406 L 7.605469 414.941406 C 3.40625 414.941406 0 418.347656 0 422.546875 L 0 452.304688 C 0 485.222656 26.777344 512 59.695312 512 L 96.445312 512 C 100.644531 512 104.050781 508.59375 104.050781 504.394531 C 104.050781 500.195312 100.644531 496.792969 96.445312 496.792969 L 59.695312 496.792969 C 35.164062 496.792969 15.207031 476.835938 15.207031 452.304688 L 15.207031 430.152344 L 178.78125 430.152344 L 178.78125 437.84375 C 178.78125 456.167969 193.6875 471.074219 212.011719 471.074219 L 273.632812 471.074219 C 291.957031 471.074219 306.863281 456.167969 306.863281 437.84375 L 306.863281 430.152344 L 496.792969 430.152344 L 496.792969 452.304688 C 496.792969 476.835938 476.835938 496.792969 452.304688 496.792969 L 121.796875 496.792969 C 117.597656 496.792969 114.191406 500.195312 114.191406 504.394531 C 114.191406 508.59375 117.597656 512 121.796875 512 L 452.304688 512 C 485.222656 512 512 485.222656 512 452.304688 L 512 422.546875 C 512 418.347656 508.59375 414.941406 504.394531 414.941406 Z M 327.414062 141.277344 C 335.09375 148.105469 345.101562 153.132812 356.203125 153.132812 C 367.300781 153.132812 377.308594 148.109375 384.988281 141.28125 L 384.988281 414.941406 L 327.414062 414.941406 Z M 392.585938 113.476562 C 388.664062 113.476562 385.140625 115.640625 383.386719 119.117188 C 379.71875 126.390625 369.097656 137.925781 356.199219 137.925781 C 343.308594 137.925781 332.683594 126.390625 329.015625 119.117188 C 327.261719 115.636719 323.734375 113.476562 319.808594 113.476562 C 315.882812 113.476562 312.355469 115.640625 310.601562 119.117188 C 307.6875 124.898438 300.375 133.367188 291.023438 136.601562 L 291.023438 134.632812 L 328.261719 70.40625 C 336.941406 74.085938 346.355469 76.015625 355.886719 76.015625 C 365.414062 76.015625 374.832031 74.085938 383.511719 70.40625 L 420.753906 134.632812 L 420.753906 136.332031 C 412.46875 133.210938 405.253906 125.96875 401.800781 119.125 C 400.046875 115.640625 396.515625 113.476562 392.585938 113.476562 Z M 355.886719 22.761719 L 375.804688 57.109375 C 369.496094 59.527344 362.734375 60.804688 355.886719 60.804688 C 349.042969 60.804688 342.285156 59.527344 335.972656 57.105469 Z M 276.269531 130.046875 C 275.980469 130.863281 275.816406 131.71875 275.816406 132.589844 L 275.816406 334.738281 C 275.816406 338.9375 279.222656 342.339844 283.421875 342.339844 C 287.621094 342.339844 291.027344 338.9375 291.027344 334.738281 L 291.027344 152.328125 C 299.082031 150.664062 306.328125 146.507812 312.207031 141.277344 L 312.207031 414.941406 L 291.023438 414.941406 L 291.023438 362.089844 C 291.023438 357.890625 287.621094 354.484375 283.421875 354.484375 C 279.222656 354.484375 275.816406 357.890625 275.816406 362.089844 L 275.816406 414.941406 L 239.273438 414.941406 L 239.273438 130.046875 Z M 36.503906 167.582031 C 36.503906 150.457031 48.019531 135.890625 63.878906 131.445312 L 63.878906 414.941406 L 36.503906 414.941406 Z M 79.085938 397.707031 L 148.535156 397.707031 C 152.734375 397.707031 156.140625 394.304688 156.140625 390.101562 C 156.140625 385.902344 152.734375 382.5 148.535156 382.5 L 79.085938 382.5 L 79.085938 349.332031 L 148.535156 349.332031 C 152.734375 349.332031 156.140625 345.925781 156.140625 341.726562 C 156.140625 337.527344 152.734375 334.125 148.535156 334.125 L 79.085938 334.125 L 79.085938 300.957031 L 148.535156 300.957031 C 152.734375 300.957031 156.140625 297.550781 156.140625 293.351562 C 156.140625 289.152344 152.734375 285.75 148.535156 285.75 L 79.085938 285.75 L 79.085938 252.582031 L 148.535156 252.582031 C 152.734375 252.582031 156.140625 249.175781 156.140625 244.976562 C 156.140625 240.777344 152.734375 237.375 148.535156 237.375 L 79.085938 237.375 L 79.085938 204.207031 L 148.535156 204.207031 C 152.734375 204.207031 156.140625 200.800781 156.140625 196.601562 C 156.140625 192.402344 152.734375 188.996094 148.535156 188.996094 L 79.085938 188.996094 L 79.085938 155.832031 L 148.535156 155.832031 C 152.734375 155.832031 156.140625 152.425781 156.140625 148.226562 C 156.140625 144.027344 152.734375 140.621094 148.535156 140.621094 L 79.085938 140.621094 L 79.085938 107.457031 L 148.535156 107.457031 C 152.734375 107.457031 156.140625 104.050781 156.140625 99.851562 C 156.140625 95.652344 152.734375 92.246094 148.535156 92.246094 L 79.085938 92.246094 L 79.085938 59.078125 L 148.535156 59.078125 C 152.734375 59.078125 156.140625 55.671875 156.140625 51.472656 C 156.140625 47.273438 152.734375 43.871094 148.535156 43.871094 L 79.085938 43.871094 L 79.085938 39.445312 C 79.085938 26.082031 89.957031 15.207031 103.320312 15.207031 L 199.832031 15.207031 C 213.195312 15.207031 224.066406 26.078125 224.066406 39.441406 L 224.066406 122.433594 C 224.066406 122.4375 224.066406 122.4375 224.066406 122.441406 C 224.066406 122.445312 224.066406 122.449219 224.066406 122.453125 L 224.066406 414.941406 L 79.085938 414.941406 Z M 291.65625 437.84375 C 291.65625 447.78125 283.570312 455.867188 273.636719 455.867188 L 212.011719 455.867188 C 202.074219 455.867188 193.988281 447.78125 193.988281 437.84375 L 193.988281 430.148438 L 291.65625 430.148438 Z M 400.195312 414.941406 L 400.195312 141.253906 C 405.921875 146.34375 412.949219 150.433594 420.757812 152.1875 L 420.757812 414.941406 Z M 435.964844 414.941406 L 435.964844 132.585938 C 435.964844 131.878906 435.859375 131.175781 435.664062 130.496094 C 453.613281 133.296875 467.394531 148.855469 467.394531 167.582031 L 467.394531 414.941406 Z M 435.964844 414.941406 " style=" stroke:none;fill-rule:nonzero;fill:rgb(0%,0%,0%);fill-opacity:1;" />
</g>
</svg>