<svg xmlns="http://www.w3.org/2000/svg" height="512pt" version="1.1" viewBox="0 0 512.00002 512" width="512pt">
<g id="surface1">
<path d="M 467.839844 200.003906 L 44.160156 200.003906 C 23.96875 200.003906 7.605469 216.371094 7.605469 236.558594 L 7.605469 467.609375 C 7.605469 487.796875 23.96875 504.164062 44.160156 504.164062 L 467.839844 504.164062 C 488.03125 504.164062 504.394531 487.796875 504.394531 467.609375 L 504.394531 236.558594 C 504.394531 216.371094 488.03125 200.003906 467.839844 200.003906 Z M 467.839844 200.003906 " style=" stroke:none;fill-rule:nonzero;fill:rgb(90.196078%,90.196078%,90.196078%);fill-opacity:1;" />
<path d="M 48.160156 448.597656 L 48.160156 255.570312 C 48.160156 247.28125 54.878906 240.558594 63.171875 240.558594 L 448.828125 240.558594 C 457.121094 240.558594 463.839844 247.28125 463.839844 255.570312 L 463.839844 448.59375 C 463.839844 456.886719 457.121094 463.609375 448.828125 463.609375 L 63.171875 463.609375 C 54.878906 463.609375 48.160156 456.886719 48.160156 448.597656 Z M 48.160156 448.597656 " style=" stroke:none;fill-rule:nonzero;fill:rgb(100%,100%,100%);fill-opacity:1;" />
<path d="M 467.839844 192.402344 L 414.164062 192.402344 C 409.964844 192.402344 406.5625 195.804688 406.5625 200.003906 C 406.5625 204.203125 409.964844 207.609375 414.164062 207.609375 L 467.839844 207.609375 C 483.804688 207.609375 496.792969 220.597656 496.792969 236.558594 L 496.792969 467.609375 C 496.792969 483.570312 483.804688 496.558594 467.839844 496.558594 L 44.160156 496.558594 C 28.195312 496.558594 15.207031 483.574219 15.207031 467.609375 L 15.207031 236.558594 C 15.207031 220.597656 28.195312 207.609375 44.160156 207.609375 L 388.816406 207.609375 C 393.015625 207.609375 396.421875 204.203125 396.421875 200.003906 C 396.421875 195.804688 393.015625 192.402344 388.816406 192.402344 L 263.605469 192.402344 L 263.605469 85.945312 C 263.605469 71.410156 275.429688 59.582031 289.964844 59.582031 C 304.5 59.582031 316.324219 71.410156 316.324219 85.945312 L 316.324219 108.25 C 316.324219 131.171875 334.972656 149.820312 357.894531 149.820312 C 380.8125 149.820312 399.460938 131.171875 399.460938 108.25 L 399.460938 7.605469 C 399.460938 3.40625 396.058594 0 391.859375 0 C 387.65625 0 384.253906 3.40625 384.253906 7.605469 L 384.253906 108.25 C 384.253906 122.785156 372.429688 134.613281 357.894531 134.613281 C 343.359375 134.613281 331.53125 122.785156 331.53125 108.25 L 331.53125 85.945312 C 331.53125 63.023438 312.882812 44.375 289.964844 44.375 C 267.042969 44.375 248.394531 63.023438 248.394531 85.945312 L 248.394531 192.402344 L 44.160156 192.402344 C 19.808594 192.402344 0 212.210938 0 236.558594 L 0 467.609375 C 0 491.957031 19.808594 511.769531 44.160156 511.769531 L 467.839844 511.769531 C 492.191406 511.769531 512 491.957031 512 467.609375 L 512 236.558594 C 512 212.210938 492.191406 192.402344 467.839844 192.402344 Z M 467.839844 192.402344 " style=" stroke:none;fill-rule:nonzero;fill:rgb(0%,0%,0%);fill-opacity:1;" />
<path d="M 48.160156 385.539062 C 43.960938 385.539062 40.554688 388.945312 40.554688 393.144531 L 40.554688 448.597656 C 40.554688 461.066406 50.699219 471.214844 63.171875 471.214844 L 448.828125 471.214844 C 461.300781 471.214844 471.445312 461.066406 471.445312 448.597656 L 471.445312 255.570312 C 471.445312 243.101562 461.300781 232.953125 448.828125 232.953125 L 63.171875 232.953125 C 50.703125 232.953125 40.554688 243.101562 40.554688 255.570312 L 40.554688 367.796875 C 40.554688 371.996094 43.960938 375.398438 48.160156 375.398438 C 52.359375 375.398438 55.761719 371.996094 55.761719 367.796875 L 55.761719 359.6875 L 123.691406 359.6875 L 123.691406 400.242188 L 55.761719 400.242188 L 55.761719 393.144531 C 55.761719 388.945312 52.359375 385.539062 48.160156 385.539062 Z M 165.257812 415.449219 L 165.257812 456.003906 L 97.332031 456.003906 L 97.332031 415.449219 Z M 331.53125 415.449219 L 331.53125 456.003906 L 180.46875 456.003906 L 180.46875 415.449219 Z M 97.332031 344.480469 L 97.332031 303.925781 L 165.257812 303.925781 L 165.257812 344.480469 Z M 456.238281 303.925781 L 456.238281 400.242188 L 388.308594 400.242188 L 388.308594 359.6875 L 422.273438 359.6875 C 426.472656 359.6875 429.878906 356.28125 429.878906 352.082031 L 429.878906 303.925781 Z M 331.53125 303.925781 L 331.53125 344.480469 L 263.605469 344.480469 L 263.605469 303.925781 Z M 373.101562 359.6875 L 373.101562 400.242188 L 305.171875 400.242188 L 305.171875 359.6875 Z M 414.667969 415.449219 L 414.667969 456.003906 L 346.742188 456.003906 L 346.742188 415.449219 Z M 414.667969 344.480469 L 346.742188 344.480469 L 346.742188 303.925781 L 414.667969 303.925781 Z M 305.171875 288.71875 L 305.171875 248.164062 L 373.101562 248.164062 L 373.101562 288.71875 Z M 289.964844 288.71875 L 222.035156 288.71875 L 222.035156 248.164062 L 289.964844 248.164062 Z M 206.828125 288.71875 L 138.898438 288.71875 L 138.898438 248.164062 L 206.828125 248.164062 Z M 180.46875 303.925781 L 248.394531 303.925781 L 248.394531 344.480469 L 180.46875 344.480469 Z M 289.964844 359.6875 L 289.964844 400.242188 L 222.035156 400.242188 L 222.035156 359.6875 Z M 448.828125 456.003906 L 429.878906 456.003906 L 429.878906 415.449219 L 456.238281 415.449219 L 456.238281 448.59375 C 456.238281 452.679688 452.914062 456.003906 448.828125 456.003906 Z M 456.238281 255.570312 L 456.238281 288.71875 L 388.308594 288.71875 L 388.308594 248.164062 L 448.828125 248.164062 C 452.914062 248.164062 456.238281 251.488281 456.238281 255.570312 Z M 63.171875 248.164062 L 123.691406 248.164062 L 123.691406 288.71875 L 55.761719 288.71875 L 55.761719 255.570312 C 55.761719 251.488281 59.085938 248.164062 63.171875 248.164062 Z M 55.761719 303.925781 L 82.121094 303.925781 L 82.121094 344.480469 L 55.761719 344.480469 Z M 138.898438 359.6875 L 206.828125 359.6875 L 206.828125 400.242188 L 138.898438 400.242188 Z M 82.121094 415.449219 L 82.121094 456.003906 L 63.171875 456.003906 C 59.085938 456.003906 55.761719 452.679688 55.761719 448.59375 L 55.761719 415.449219 Z M 82.121094 415.449219 " style=" stroke:none;fill-rule:nonzero;fill:rgb(0%,0%,0%);fill-opacity:1;" />
</g>
</svg>