<svg xmlns="http://www.w3.org/2000/svg" height="512pt" version="1.1" viewBox="0 0 512 512.00001" width="512pt">
<g id="surface1">
<path d="M 437.480469 41.445312 L 437.480469 120.417969 L 74.519531 120.417969 L 74.519531 41.445312 C 74.519531 22.761719 89.675781 7.605469 108.359375 7.605469 L 403.636719 7.605469 C 422.324219 7.605469 437.480469 22.761719 437.480469 41.445312 Z M 437.480469 41.445312 " style=" stroke:none;fill-rule:nonzero;fill:rgb(90.196078%,90.196078%,90.196078%);fill-opacity:1;" />
<path d="M 74.519531 79.863281 L 437.480469 79.863281 L 437.480469 120.417969 L 74.519531 120.417969 Z M 74.519531 79.863281 " style=" stroke:none;fill-rule:nonzero;fill:rgb(80%,80%,80%);fill-opacity:1;" />
<path d="M 437.480469 420.519531 L 454.960938 420.519531 C 482.261719 420.519531 504.394531 398.386719 504.394531 371.082031 L 504.394531 169.851562 C 504.394531 142.546875 482.261719 120.417969 454.960938 120.417969 L 57.03125 120.417969 C 29.738281 120.417969 7.605469 142.546875 7.605469 169.851562 L 7.605469 371.082031 C 7.605469 398.386719 29.738281 420.519531 57.03125 420.519531 L 74.519531 420.519531 " style=" stroke:none;fill-rule:nonzero;fill:rgb(98.039216%,43.921569%,69.803922%);fill-opacity:1;" />
<path d="M 54.242188 371.082031 L 54.242188 169.851562 C 54.242188 142.546875 76.375 120.417969 103.667969 120.417969 L 57.03125 120.417969 C 29.738281 120.417969 7.605469 142.546875 7.605469 169.851562 L 7.605469 371.082031 C 7.605469 398.386719 29.738281 420.519531 57.03125 420.519531 L 103.667969 420.519531 C 76.375 420.519531 54.242188 398.386719 54.242188 371.082031 Z M 54.242188 371.082031 " style=" stroke:none;fill-rule:nonzero;fill:rgb(86.666667%,12.941176%,35.686275%);fill-opacity:1;" />
<path d="M 437.480469 377.9375 C 455.398438 377.9375 469.921875 363.410156 469.921875 345.492188 L 469.921875 341.4375 C 469.921875 323.519531 455.398438 308.992188 437.480469 308.992188 L 74.519531 308.992188 C 56.601562 308.992188 42.074219 323.519531 42.074219 341.4375 L 42.074219 345.492188 C 42.074219 363.410156 56.601562 377.9375 74.519531 377.9375 " style=" stroke:none;fill-rule:nonzero;fill:rgb(14.117647%,19.215686%,25.882353%);fill-opacity:1;" />
<path d="M 437.476562 341.4375 L 74.515625 341.4375 L 74.515625 470.550781 C 74.515625 489.242188 89.667969 504.394531 108.359375 504.394531 L 403.632812 504.394531 C 422.324219 504.394531 437.476562 489.242188 437.476562 470.550781 Z M 437.476562 341.4375 " style=" stroke:none;fill-rule:nonzero;fill:rgb(90.196078%,90.196078%,90.196078%);fill-opacity:1;" />
<path d="M 74.519531 341.4375 L 437.480469 341.4375 L 437.480469 381.992188 L 74.519531 381.992188 Z M 74.519531 341.4375 " style=" stroke:none;fill-rule:nonzero;fill:rgb(80%,80%,80%);fill-opacity:1;" />
<path d="M 118.113281 191.386719 C 118.113281 207.066406 105.40625 219.773438 89.726562 219.773438 C 74.046875 219.773438 61.339844 207.066406 61.339844 191.386719 C 61.339844 175.707031 74.046875 163 89.726562 163 C 105.40625 163 118.113281 175.707031 118.113281 191.386719 Z M 118.113281 191.386719 " style=" stroke:none;fill-rule:nonzero;fill:rgb(100%,81.568627%,38.039216%);fill-opacity:1;" />
<path d="M 201.753906 191.386719 C 201.753906 207.066406 189.042969 219.773438 173.367188 219.773438 C 157.6875 219.773438 144.976562 207.066406 144.976562 191.386719 C 144.976562 175.707031 157.6875 163 173.367188 163 C 189.042969 163 201.753906 175.707031 201.753906 191.386719 Z M 201.753906 191.386719 " style=" stroke:none;fill-rule:nonzero;fill:rgb(28.627451%,74.117647%,56.470588%);fill-opacity:1;" />
<path d="M 454.960938 112.8125 L 445.085938 112.8125 L 445.085938 41.449219 C 445.085938 18.59375 426.492188 0 403.636719 0 L 108.363281 0 C 85.507812 0 66.914062 18.59375 66.914062 41.449219 L 66.914062 112.8125 L 57.03125 112.8125 C 25.582031 112.8125 0 138.398438 0 169.851562 L 0 371.082031 C 0 402.535156 25.582031 428.121094 57.03125 428.121094 L 66.910156 428.121094 L 66.910156 470.550781 C 66.910156 493.40625 85.503906 512 108.359375 512 L 178.945312 512 C 183.148438 512 186.550781 508.59375 186.550781 504.394531 C 186.550781 500.195312 183.148438 496.792969 178.945312 496.792969 L 108.359375 496.792969 C 93.890625 496.792969 82.121094 485.019531 82.121094 470.550781 L 82.121094 349.042969 L 429.875 349.042969 L 429.875 470.550781 C 429.875 485.019531 418.101562 496.792969 403.632812 496.792969 L 204.292969 496.792969 C 200.09375 496.792969 196.691406 500.195312 196.691406 504.394531 C 196.691406 508.59375 200.09375 512 204.292969 512 L 403.632812 512 C 426.488281 512 445.082031 493.40625 445.082031 470.550781 L 445.082031 428.121094 L 454.960938 428.121094 C 486.410156 428.121094 512 402.535156 512 371.082031 L 512 169.851562 C 512 138.398438 486.410156 112.8125 454.960938 112.8125 Z M 74.515625 333.832031 C 70.316406 333.832031 66.914062 337.238281 66.914062 341.4375 L 66.914062 369.136719 C 56.925781 365.917969 49.679688 356.535156 49.679688 345.492188 L 49.679688 341.4375 C 49.679688 327.742188 60.820312 316.597656 74.519531 316.597656 L 437.480469 316.597656 C 451.175781 316.597656 462.320312 327.742188 462.320312 341.4375 L 462.320312 345.492188 C 462.320312 356.539062 455.070312 365.917969 445.082031 369.136719 L 445.082031 341.4375 C 445.082031 337.238281 441.675781 333.832031 437.476562 333.832031 Z M 496.792969 371.082031 C 496.792969 394.148438 478.027344 412.914062 454.960938 412.914062 L 445.082031 412.914062 L 445.082031 384.808594 C 463.539062 381.246094 477.527344 364.976562 477.527344 345.492188 L 477.527344 341.4375 C 477.527344 319.355469 459.5625 301.390625 437.480469 301.390625 L 74.519531 301.390625 C 52.4375 301.390625 34.472656 319.355469 34.472656 341.4375 L 34.472656 345.492188 C 34.472656 364.972656 48.457031 381.242188 66.910156 384.804688 L 66.910156 412.914062 L 57.03125 412.914062 C 33.96875 412.914062 15.207031 394.148438 15.207031 371.082031 L 15.207031 169.851562 C 15.207031 146.785156 33.96875 128.019531 57.03125 128.019531 L 338.121094 128.019531 C 342.320312 128.019531 345.722656 124.617188 345.722656 120.417969 C 345.722656 116.214844 342.320312 112.8125 338.121094 112.8125 L 82.121094 112.8125 L 82.121094 41.449219 C 82.121094 26.980469 93.894531 15.207031 108.363281 15.207031 L 403.636719 15.207031 C 418.105469 15.207031 429.875 26.980469 429.875 41.449219 L 429.875 112.8125 L 363.46875 112.8125 C 359.269531 112.8125 355.863281 116.214844 355.863281 120.417969 C 355.863281 124.617188 359.269531 128.019531 363.46875 128.019531 L 454.960938 128.019531 C 478.027344 128.019531 496.792969 146.785156 496.792969 169.851562 Z M 496.792969 371.082031 " style=" stroke:none;fill-rule:nonzero;fill:rgb(0%,0%,0%);fill-opacity:1;" />
<path d="M 89.726562 155.394531 C 69.878906 155.394531 53.734375 171.539062 53.734375 191.386719 C 53.734375 211.234375 69.878906 227.378906 89.726562 227.378906 C 109.574219 227.378906 125.71875 211.234375 125.71875 191.386719 C 125.71875 171.539062 109.574219 155.394531 89.726562 155.394531 Z M 89.726562 212.171875 C 78.265625 212.171875 68.941406 202.847656 68.941406 191.386719 C 68.941406 179.925781 78.265625 170.601562 89.726562 170.601562 C 101.1875 170.601562 110.511719 179.925781 110.511719 191.386719 C 110.511719 202.847656 101.1875 212.171875 89.726562 212.171875 Z M 89.726562 212.171875 " style=" stroke:none;fill-rule:nonzero;fill:rgb(0%,0%,0%);fill-opacity:1;" />
<path d="M 173.367188 155.394531 C 153.519531 155.394531 137.375 171.539062 137.375 191.386719 C 137.375 211.234375 153.519531 227.378906 173.367188 227.378906 C 193.214844 227.378906 209.359375 211.234375 209.359375 191.386719 C 209.359375 171.539062 193.214844 155.394531 173.367188 155.394531 Z M 173.367188 212.171875 C 161.90625 212.171875 152.582031 202.847656 152.582031 191.386719 C 152.582031 179.925781 161.90625 170.601562 173.367188 170.601562 C 184.828125 170.601562 194.152344 179.925781 194.152344 191.386719 C 194.152344 202.847656 184.828125 212.171875 173.367188 212.171875 Z M 173.367188 212.171875 " style=" stroke:none;fill-rule:nonzero;fill:rgb(0%,0%,0%);fill-opacity:1;" />
<path d="M 127.238281 395.679688 L 384.757812 395.679688 C 388.957031 395.679688 392.363281 392.273438 392.363281 388.074219 C 392.363281 383.875 388.957031 380.472656 384.757812 380.472656 L 127.238281 380.472656 C 123.035156 380.472656 119.632812 383.875 119.632812 388.074219 C 119.632812 392.273438 123.035156 395.679688 127.238281 395.679688 Z M 127.238281 395.679688 " style=" stroke:none;fill-rule:nonzero;fill:rgb(0%,0%,0%);fill-opacity:1;" />
<path d="M 127.238281 442.316406 L 384.757812 442.316406 C 388.957031 442.316406 392.363281 438.910156 392.363281 434.710938 C 392.363281 430.511719 388.957031 427.109375 384.757812 427.109375 L 127.238281 427.109375 C 123.035156 427.109375 119.632812 430.511719 119.632812 434.710938 C 119.632812 438.910156 123.035156 442.316406 127.238281 442.316406 Z M 127.238281 442.316406 " style=" stroke:none;fill-rule:nonzero;fill:rgb(0%,0%,0%);fill-opacity:1;" />
</g>
</svg>